<?xml version="1.0" encoding="UTF-8"?>
<svg id="Layer_1" xmlns="http://www.w3.org/2000/svg" viewBox="0 0 474.16 577.46">
  <defs>
    <style>
      .cls-1, .cls-2, .cls-3 {
        stroke: #000;
        stroke-miterlimit: 10;
      }

      .cls-1, .cls-3 {
        fill: none;
      }

      .cls-2, .cls-3 {
        stroke-width: 3px;
      }
    </style>
  </defs>
  <path class="cls-2" d="M206.39,575.96h-58.19c-81,0-146.7-25.34-146.7-56.59v-199.16c0-31.25,65.7-56.59,146.7-56.59h58.19c-81,0-146.7,25.34-146.7,56.59v199.16c0,31.25,65.7,56.59,146.7,56.59Z"/>
  <path class="cls-3" d="M414.47,320.21v199.16c0,31.25-65.7,56.59-146.7,56.59h-61.39c-81,0-146.7-25.34-146.7-56.59v-199.16c0-31.25,65.7-56.59,146.7-56.59h61.39c81,0,146.7,25.34,146.7,56.59Z"/>
  <path class="cls-2" d="M472.66,320.21v199.16c0,31.25-65.7,56.59-146.7,56.59h-58.19c81,0,146.7-25.34,146.7-56.59v-199.16c0-31.25-65.7-56.59-146.7-56.59h58.19c81,0,146.7,25.34,146.7,56.59Z"/>
  <path class="cls-1" d="M414.47,320.21v199.16c0,31.25-65.7,56.59-146.7,56.59h-61.39c-81,0-146.7-25.34-146.7-56.59v-199.16c0-31.25,65.7-56.59,146.7-56.59h61.39c81,0,146.7,25.34,146.7,56.59Z"/>
  <line class="cls-3" x1="446.67" y1="401.81" x2="446.11" y2="401.81"/>
  <g>
    <path class="cls-2" d="M223.69,199.74h-25.39c-35.34,0-64-16.08-64-35.92V37.42c0-19.83,28.66-35.92,64-35.92h25.39c-35.34,0-64,16.08-64,35.92v126.4c0,19.83,28.66,35.92,64,35.92Z"/>
    <path class="cls-3" d="M314.48,37.43v126.4c0,19.83-33.36,35.92-74.5,35.92h-31.18c-41.14,0-74.5-16.08-74.5-35.92V37.43c0-19.83,33.36-35.92,74.5-35.92h31.18c41.13,0,74.5,16.08,74.5,35.92h0Z"/>
    <path class="cls-2" d="M339.86,37.43v126.4c0,19.83-28.66,35.92-64,35.92h-25.39c35.34,0,64-16.08,64-35.92V37.43c0-19.83-28.66-35.92-64-35.92h25.39c35.34,0,64,16.08,64,35.92h0Z"/>
    <path class="cls-3" d="M314.48,37.43v126.4c0,19.83-28.66,35.92-64,35.92h-26.78c-35.34,0-64-16.08-64-35.92V37.43c0-19.83,28.66-35.92,64-35.92h26.78c35.34,0,64,16.08,64,35.92h0Z"/>
  </g>
</svg>